<?xml version="1.0" encoding="UTF-8"?>
<svg version="1.1" xmlns="http://www.w3.org/2000/svg" width="1254" height="1254">
<path d="M0 0 C413.82 0 827.64 0 1254 0 C1254 413.82 1254 827.64 1254 1254 C840.18 1254 426.36 1254 0 1254 C0 840.18 0 426.36 0 0 Z " fill="#FDFDFD" transform="translate(0,0)"/>
<path d="M0 0 C1.75752342 -0.0076664 1.75752342 -0.0076664 3.55055237 -0.01548767 C7.41567119 -0.02936244 11.28061121 -0.02842801 15.14575195 -0.02612305 C17.16021312 -0.02843462 19.17466992 -0.03193869 21.18912917 -0.03552979 C27.5225886 -0.04660615 33.85598871 -0.04707403 40.18945312 -0.04101562 C46.69517546 -0.03498739 53.2006809 -0.04726172 59.70636624 -0.06858569 C65.31430574 -0.08628252 70.92217673 -0.0921901 76.53014308 -0.08894795 C79.86946474 -0.08714653 83.20850944 -0.09099493 86.54782677 -0.10366249 C90.28074911 -0.11608239 94.01317852 -0.10920074 97.74609375 -0.09765625 C99.37606796 -0.10912186 99.37606796 -0.10912186 101.03897095 -0.12081909 C116.1381576 -0.0182828 125.43191415 4.1259313 136.36450195 14.2902832 C142.9448014 21.1932839 145.21115558 29.67406615 147.4855957 38.73168945 C148.14440126 41.27493797 148.14440126 41.27493797 149.15565491 43.62724304 C150.14022745 46.1314477 150.88049103 48.57527802 151.56152344 51.17626953 C153.22923329 57.42605574 155.00175919 63.64313405 156.78611946 69.86050987 C157.37155214 71.9006716 157.9559774 73.94111963 158.54014587 75.98164368 C160.19869268 81.77446266 161.85878073 87.56683918 163.52001953 93.35888672 C164.54259183 96.92443132 165.56384747 100.49035095 166.58431816 104.05649757 C166.97011582 105.40370881 167.3564129 106.75077713 167.74324226 108.09769249 C168.28497466 109.98404603 168.82489084 111.87092088 169.36474609 113.7578125 C169.67102432 114.82605759 169.97730255 115.89430267 170.29286194 116.99491882 C171.32497928 120.740834 172.25905749 124.50395538 173.1965332 128.2746582 C174.24860486 128.27487557 175.30067652 128.27509294 176.38462913 128.27531689 C222.75391668 128.28522501 269.12319685 128.30132049 315.49246216 128.34895325 C316.54557985 128.35003243 316.54557985 128.35003243 317.61997265 128.35113341 C332.87826066 128.36680636 348.13654726 128.38358872 363.39483278 128.40151383 C370.87756081 128.41029762 378.36028912 128.41883628 385.84301758 128.42724609 C386.95994595 128.42850766 386.95994595 128.42850766 388.09943853 128.42979472 C412.23194749 128.45693752 436.36443081 128.46789499 460.49695385 128.47045345 C485.29756671 128.47316827 510.09811469 128.49222309 534.8986974 128.53181935 C538.40211114 128.53740524 541.90552515 128.54280445 545.40893936 128.54808998 C546.44321615 128.54965903 546.44321615 128.54965903 547.49838742 128.55125979 C558.5949201 128.56761386 569.69138783 128.56675786 580.78792737 128.55945538 C591.9454199 128.55248044 603.10277865 128.5640649 614.26024525 128.59332111 C620.30496855 128.60862842 626.34941644 128.61580225 632.39414787 128.60125542 C637.92886734 128.58811405 643.4630528 128.59797902 648.99771203 128.62609593 C650.99921495 128.63221119 653.00076519 128.62990376 655.00224374 128.61828747 C667.34167218 128.55227856 676.4059385 128.96160472 686.0090332 137.5246582 C693.08771437 145.17231138 695.50647966 152.74990121 695.40853882 162.97219849 C695.05933344 168.41185019 693.72763151 173.4925149 692.30981445 178.73950195 C692.01092819 179.89349991 691.71204193 181.04749786 691.40409851 182.23646545 C690.45267838 185.8987449 689.48162127 189.55544981 688.5090332 193.2121582 C687.56182582 196.82570466 686.6187544 200.44031148 685.67623901 204.05508423 C685.05933749 206.41890397 684.44031464 208.78217116 683.81912231 211.14486694 C681.70385679 219.21579095 679.70788193 227.30750665 677.86579895 235.44529724 C676.77847295 240.1669024 675.43694776 244.7145787 673.86195374 249.29652405 C673.1051702 251.5462583 672.5076735 253.79943758 671.9855957 256.11450195 C671.79545898 256.94014648 671.60532227 257.76579102 671.40942383 258.61645508 C671.21541992 259.47303711 671.02141602 260.32961914 670.8215332 261.2121582 C669.26005544 267.94692094 667.59649954 274.62739307 665.6965332 281.2746582 C663.82083743 287.83996135 662.17832638 294.43627592 660.6340332 301.0871582 C659.32568062 306.7163048 657.96984333 312.26956292 656.1965332 317.7746582 C653.56186861 325.96549047 651.74644756 334.35797127 649.79467773 342.73120117 C648.63368759 347.66801559 647.40466279 352.58654754 646.15356445 357.5012207 C645.50565123 360.05584998 644.87749321 362.60902125 644.27075195 365.1730957 C641.1127079 377.98721685 636.86322223 388.94237237 626.1965332 397.2746582 C619.94877114 401.05047962 614.46996727 403.40022332 607.12704945 403.39770603 C605.84963692 403.39969708 604.57222438 403.40168813 603.25610238 403.40373951 C601.83038745 403.40088627 600.4046727 403.39794067 598.97895813 403.39491272 C597.47081665 403.39534854 595.96267524 403.39622364 594.45453423 403.39750189 C590.29972822 403.39974479 586.14494783 403.39572833 581.99014509 403.39072382 C577.51367338 403.3864166 573.03720318 403.38786594 568.56072998 403.3886261 C560.80142688 403.38915116 553.04213218 403.38600621 545.28283119 403.38038826 C534.0641009 403.37227086 522.84537468 403.36965779 511.62664177 403.36840027 C493.42622242 403.36621013 475.22580755 403.35955106 457.02539062 403.35009766 C439.34244814 403.34092256 421.65950688 403.3338422 403.9765625 403.32958984 C402.88709728 403.32932712 401.79763207 403.3290644 400.67515276 403.32879371 C395.20977866 403.3274887 389.74440455 403.32622499 384.27903044 403.32498181 C338.91819493 403.31461037 293.5573643 403.29699308 248.1965332 403.2746582 C248.47329643 404.02695111 248.75005966 404.77924402 249.03520966 405.55433369 C249.39713661 406.54278373 249.75906357 407.53123377 250.13195801 408.54963684 C250.67085285 410.01838871 250.67085285 410.01838871 251.22063446 411.51681232 C252.32432407 414.63578945 253.20155243 417.7582447 253.9777832 420.97387695 C254.26266602 422.12049805 254.54754883 423.26711914 254.84106445 424.44848633 C255.41407081 426.80199876 255.98435884 429.15617459 256.55200195 431.51098633 C258.86616731 440.7938261 260.98440217 448.6904091 269.1965332 454.2746582 C275.07679723 456.98078294 281.11674445 456.54554613 287.45425415 456.51275635 C288.70048093 456.51431535 289.94670771 456.51587436 291.23069894 456.51748061 C294.68294011 456.51992316 298.13495963 456.51347398 301.58717322 456.50337815 C305.31330393 456.49472246 309.03942623 456.49771284 312.76556396 456.49952698 C319.22174976 456.50133738 325.67790302 456.49654655 332.13408279 456.48792267 C342.34538141 456.47486678 352.55661669 456.4824487 362.76791382 456.49334717 C366.2637805 456.49682526 369.7596473 456.50017033 373.25551414 456.50347519 C374.12915676 456.50430653 375.00279938 456.50513786 375.90291602 456.50599439 C385.84437426 456.51517551 395.78583305 456.5201276 405.72729492 456.52319336 C406.63588231 456.52347911 407.54446969 456.52376486 408.48059003 456.52405927 C423.19639909 456.52816152 437.91216757 456.5169433 452.62796755 456.50181785 C467.74782814 456.48683452 482.86756623 456.49485502 497.987409 456.52243495 C507.3066964 456.53858017 516.62559738 456.53595067 525.94486146 456.50896183 C532.33651344 456.49203366 538.72791599 456.4969642 545.11955197 456.51884612 C548.80325347 456.53077246 552.4862843 456.53309635 556.16994095 456.50896645 C560.17277826 456.4829781 564.17406612 456.50376216 568.1769104 456.52862549 C569.90428544 456.50619998 569.90428544 456.50619998 571.66655695 456.48332143 C580.51117425 456.59892719 588.77373109 458.91156911 595.23307765 465.2837069 C599.43934661 470.42716799 601.85387832 476.13365509 602.5715332 482.7121582 C601.67234907 491.25440744 598.68971204 496.47870355 593.1340332 503.01293945 C584.82452655 509.41081758 575.43225765 509.85452526 565.30578613 509.78259277 C563.93056693 509.7872107 562.55535268 509.79356957 561.1801486 509.80150175 C557.42937759 509.81809614 553.67901719 509.80999431 549.92824531 509.79755688 C545.87226661 509.78846783 541.81635616 509.80249513 537.76039124 509.81347656 C529.82590427 509.83122542 521.891569 509.82743805 513.95707619 509.815826 C507.50623784 509.80677761 501.05544188 509.80557375 494.604599 509.80992126 C493.68507005 509.8105342 492.7655411 509.81114713 491.81814763 509.81177863 C489.94990654 509.81305759 488.08166545 509.81435444 486.21342438 509.815669 C468.71151356 509.82706415 451.20968666 509.81397782 433.7077896 509.79246753 C418.70350717 509.77459752 403.69934855 509.77770193 388.69506836 509.79614258 C371.25406053 509.81756812 353.81312618 509.82596562 336.37210703 509.81369352 C334.51089383 509.81241938 332.64968063 509.8111619 330.78846741 509.80992126 C329.87281139 509.80930416 328.95715537 509.80868706 328.01375219 509.80805126 C321.57367954 509.80460341 315.13365366 509.8104145 308.69358826 509.81983948 C300.84095372 509.83107956 292.98847903 509.82797727 285.13586271 509.8067165 C281.1324073 509.79623304 277.12921804 509.79203779 273.12576485 509.80531311 C269.4554371 509.81729937 265.78562028 509.81057311 262.11533839 509.7894029 C260.17048879 509.78287218 258.22560326 509.79581703 256.28079176 509.80963182 C244.16946542 509.70212238 234.57381772 506.39522347 225.6340332 498.0871582 C217.9803765 489.99309928 215.51415591 480.25377612 212.8215332 469.7121582 C212.1104643 466.98034755 211.39247535 464.25038461 210.6730957 461.52075195 C210.3927095 460.45148216 210.3927095 460.45148216 210.10665894 459.36061096 C208.17009326 452.04117643 206.03215927 444.7830954 203.89746094 437.51947021 C201.06208051 427.85825131 198.35035249 418.16486875 195.6557312 408.46362305 C189.23653388 385.36719374 182.63570412 362.32513686 175.97045898 339.29882812 C172.8624553 328.55725243 169.76541615 317.81478556 166.79200745 307.03507996 C165.27448049 301.53520993 163.69048364 296.05785938 162.0715332 290.5871582 C159.78582829 282.82024455 157.55917422 275.0386371 155.37231445 267.2434082 C155.12642578 266.36758591 154.88053711 265.49176361 154.62719727 264.58940125 C153.3904152 260.18192806 152.15721474 255.77348907 150.9284668 251.36376953 C150.46973369 249.72596805 150.01091581 248.0881903 149.55200195 246.45043945 C149.23988518 245.32375854 149.23988518 245.32375854 148.92146301 244.17431641 C147.87237768 240.44015075 146.68366656 236.8555188 145.1965332 233.2746582 C144.7675239 231.51156837 144.37528612 229.73934517 144.0090332 227.9621582 C140.88204428 213.98643221 136.63923263 200.19079367 131.95825195 186.66137695 C131.21541153 184.3338103 130.67857737 182.04339891 130.1965332 179.6496582 C129.55456511 176.48486815 128.60762465 173.73565944 127.3215332 170.7746582 C125.49438171 166.40830354 124.34512056 162.00791616 123.3215332 157.3996582 C121.51222887 149.28311898 119.19698125 141.38318591 116.76293945 133.43481445 C115.19103299 128.29667561 113.71836706 123.13320209 112.2590332 117.9621582 C109.85701021 109.48013842 107.33546458 101.03892463 104.73632812 92.61523438 C103.37271016 88.18754451 102.03737088 83.75998501 100.81762695 79.2902832 C100.60501221 78.52296875 100.39239746 77.7556543 100.17333984 76.96508789 C99.78947865 75.56792658 99.41640979 74.16772405 99.05761719 72.76391602 C97.7484991 68.03867529 95.83668378 63.62833974 92.1965332 60.2746582 C86.53246019 57.31237548 81.97216158 56.84502855 75.64038086 56.88989258 C74.70771896 56.88451981 73.77505707 56.87914703 72.81413269 56.87361145 C70.79861135 56.86386412 68.78304819 56.86088005 66.76750565 56.8639679 C63.57180156 56.86846277 60.37664631 56.85439765 57.18099976 56.83557129 C50.39451974 56.79885876 43.60809788 56.78509335 36.8215332 56.7746582 C28.9607303 56.7625576 21.10019592 56.7409115 13.2395134 56.69465637 C10.10151214 56.68113831 6.96385487 56.68524768 3.82583618 56.69006348 C1.88771128 56.68071716 -0.05040987 56.67054691 -1.98852539 56.65942383 C-3.28402565 56.66864616 -3.28402565 56.66864616 -4.60569763 56.67805481 C-12.93281167 56.59459667 -20.40828217 54.47746738 -26.9440918 49.1965332 C-32.40725883 43.5497303 -35.59131893 36.52124223 -35.90112305 28.67700195 C-35.5735156 20.61785867 -33.18875068 14.37034124 -27.8034668 8.2746582 C-19.15552007 0.91604172 -10.98749532 -0.02481887 0 0 Z " fill="#FD5703" transform="translate(173.803466796875,361.725341796875)"/>
<path d="M0 0 C0.87067108 -0.00067474 1.74134216 -0.00134949 2.63839722 -0.00204468 C18.53516124 0.01734052 34.05463532 1.03500408 49.8125 3.25 C51.65618164 3.49943359 51.65618164 3.49943359 53.53710938 3.75390625 C94.69808489 9.43273271 134.93146992 21.15294526 172.8125 38.25 C173.69325195 38.64364746 174.57400391 39.03729492 175.48144531 39.44287109 C211.14674436 55.50210796 244.55316987 77.30231176 273.8125 103.25 C275.18711834 104.43794178 276.56205738 105.6255127 277.9375 106.8125 C289.77880466 117.2459213 301.67665095 127.93639977 311.8984375 139.99609375 C313.46647307 141.84253564 315.05649941 143.66090044 316.6640625 145.47265625 C329.14297485 159.59273003 340.43387249 174.5248068 350.8125 190.25 C351.29041992 190.97380859 351.76833984 191.69761719 352.26074219 192.44335938 C370.13401216 219.70687072 384.23863204 248.81030333 395.8125 279.25 C396.27462891 280.46042969 396.27462891 280.46042969 396.74609375 281.6953125 C400.29869269 291.09250968 403.0984412 300.58124985 405.5390625 310.32421875 C406.51912388 314.22231134 407.63462037 318.07005312 408.76953125 321.92578125 C410.84215506 329.13682531 412.43285201 336.38963962 413.875 343.75 C414.00289917 344.40051331 414.13079834 345.05102661 414.26257324 345.72125244 C425.73876535 404.33830269 423.40261187 461.99730886 411.8125 520.25 C411.64282715 521.11963379 411.4731543 521.98926758 411.29833984 522.88525391 C408.42486088 537.34135591 403.50428646 551.30528823 398.8125 565.25 C398.44995117 566.33442383 398.08740234 567.41884766 397.71386719 568.53613281 C392.17014971 584.97419519 385.44792862 600.67758927 377.8125 616.25 C377.29671387 617.30219727 376.78092773 618.35439453 376.24951172 619.43847656 C362.56390532 647.08280406 345.97841146 672.79564238 326.25976562 696.49853516 C324.26624408 698.91107287 322.32648929 701.36591065 320.375 703.8125 C311.57719828 714.50910785 301.80760324 724.35206174 292.06088257 734.17684937 C290.66850132 735.58112701 289.28010714 736.98935447 287.8918457 738.39770508 C282.58430778 743.71199989 277.11046096 748.62613606 271.23535156 753.30688477 C269.01653 755.08636892 266.87908097 756.92750178 264.75 758.8125 C261.8125 761.25 261.8125 761.25 259.8125 761.25 C264.97954715 767.52915995 270.68761005 772.91510382 276.8125 778.25 C277.74835938 779.07564453 277.74835938 779.07564453 278.703125 779.91796875 C281.87043249 782.70657643 285.06236833 785.46639227 288.2578125 788.22265625 C295.05398328 794.08954047 301.78980062 800.00159177 308.4140625 806.0625 C312.86307452 810.12023083 317.4101347 814.05919015 321.99609375 817.9609375 C328.26986588 823.30438837 334.45038196 828.71040165 340.48779297 834.31982422 C343.62753117 837.21748224 346.85416489 839.95346573 350.1875 842.625 C355.26927457 846.70804431 359.99595849 851.09567585 364.73046875 855.5690918 C368.73784807 859.32935683 372.86702923 862.77098009 377.3359375 865.98046875 C377.82320312 866.39941406 378.31046875 866.81835938 378.8125 867.25 C378.8125 867.91 378.8125 868.57 378.8125 869.25 C358.61917532 869.60147966 338.42647698 869.8654335 318.23072052 870.02718258 C308.85182527 870.10430647 299.47483788 870.20930985 290.09716797 870.3815918 C281.91679485 870.53180506 273.73780394 870.62803489 265.55608988 870.66132742 C261.22896431 870.68077125 256.90579016 870.72594668 252.5799408 870.83595085 C222.76827352 871.56473821 222.76827352 871.56473821 214.0515976 864.1226511 C211.60620848 861.62366765 209.45689564 859.01092506 207.38215637 856.19944954 C204.61311858 852.76041693 201.18954812 850.06903139 197.8125 847.25 C195.8349436 845.47848516 193.88916404 843.67528843 191.9375 841.875 C188.24777804 838.47877865 184.5454327 835.09883673 180.8125 831.75 C174.04453188 825.67396473 167.35529743 819.51181288 160.6640625 813.3515625 C154.32721492 807.51788095 154.32721492 807.51788095 147.875 801.8125 C143.69140143 798.18787911 139.6481539 794.41614933 135.59008789 790.65258789 C132.69885872 787.97598962 129.79360596 785.32688821 126.8125 782.75 C123.23898013 779.66102519 119.77542568 776.46154075 116.3125 773.25 C112.17973946 769.41827423 108.01828831 765.63534804 103.7578125 761.9453125 C96.84853172 755.92397142 90.10884693 749.70647185 83.35546875 743.51171875 C80.81903142 741.201023 80.81903142 741.201023 77.98828125 739.08203125 C77.27027344 738.47746094 76.55226563 737.87289062 75.8125 737.25 C75.8125 736.59 75.8125 735.93 75.8125 735.25 C76.44003174 735.18006836 77.06756348 735.11013672 77.71411133 735.03808594 C123.95541769 729.79861193 162.32794951 712.24026816 198.8125 683.25 C199.3806543 682.79898926 199.94880859 682.34797852 200.53417969 681.88330078 C214.78674274 670.42397446 228.00243601 657.19680769 239.8125 643.25 C240.2876001 642.69231934 240.7627002 642.13463867 241.25219727 641.56005859 C259.02464257 620.4625681 274.5628172 595.96609684 285.69921875 570.71875 C286.66619509 568.57443756 287.70874354 566.51308984 288.8125 564.4375 C291.17095782 559.80617356 292.78353911 554.9154199 294.46875 550.0078125 C295.49822049 547.12888631 296.59024207 544.32202606 297.75 541.49609375 C305.65382749 521.89222895 310.11711726 501.16122635 313.5 480.375 C313.66329803 479.37533203 313.66329803 479.37533203 313.82989502 478.35546875 C315.75444443 466.48100988 316.95876447 454.84280739 317.05078125 442.8125 C317.06554001 441.21324425 317.06554001 441.21324425 317.08059692 439.5816803 C317.40108129 395.77162597 314.13782582 353.41821293 297.8125 312.25 C297.51730469 311.49976563 297.22210937 310.74953125 296.91796875 309.9765625 C295.89613281 307.39551077 294.85509364 304.82273106 293.8125 302.25 C293.45414063 301.34507812 293.09578125 300.44015625 292.7265625 299.5078125 C289.52433226 291.57745706 285.80741945 283.96609448 281.89941406 276.36621094 C281.17322841 274.95233465 280.45123508 273.53629746 279.73339844 272.11816406 C274.42991032 261.64962271 268.54561415 251.85801416 261.8125 242.25 C261.39323242 241.64526855 260.97396484 241.04053711 260.54199219 240.41748047 C254.97279809 232.39381092 249.1166022 224.71729734 242.8125 217.25 C241.97847656 216.23035156 241.14445313 215.21070313 240.28515625 214.16015625 C228.27725121 199.63039716 214.87252941 185.6291563 199.8125 174.25 C198.56630009 173.26610397 197.3216356 172.28026151 196.078125 171.29296875 C171.90080219 152.25146416 144.988905 136.46351134 116.30297852 125.22802734 C114.66238039 124.58375364 113.0271861 123.925519 111.39819336 123.25244141 C94.55513064 116.31378228 76.74514314 111.38309868 58.8125 108.25 C57.81798828 108.07484863 56.82347656 107.89969727 55.79882812 107.71923828 C52.53479171 107.15263402 49.2684077 106.60329638 46 106.0625 C44.99831787 105.89524414 43.99663574 105.72798828 42.96459961 105.55566406 C7.89374493 99.98931717 -29.40008818 101.66134166 -64.1875 108.25 C-65.363125 108.46930176 -66.53875 108.68860352 -67.75 108.91455078 C-125.3181079 120.03339107 -177.62114145 148.49308092 -221.1875 187.25 C-221.73889648 187.73823242 -222.29029297 188.22646484 -222.85839844 188.72949219 C-231.15652572 196.11263535 -238.83954563 203.92298441 -246.1875 212.25 C-246.64866211 212.77174805 -247.10982422 213.29349609 -247.58496094 213.83105469 C-266.13378794 234.96013016 -280.90250344 258.32563489 -294.5625 282.8125 C-294.96726562 283.53800049 -295.37203125 284.26350098 -295.7890625 285.01098633 C-298.38280098 289.69862827 -300.81973005 294.44418383 -303.1875 299.25 C-304.77292745 296.30350206 -305.7885258 293.45949484 -306.66796875 290.234375 C-306.94133057 289.24276367 -307.21469238 288.25115234 -307.49633789 287.22949219 C-307.78629639 286.16375977 -308.07625488 285.09802734 -308.375 284 C-309.00149299 281.72885986 -309.62912589 279.45803389 -310.2578125 277.1875 C-310.57782227 276.03121094 -310.89783203 274.87492187 -311.22753906 273.68359375 C-312.97132329 267.4464164 -314.79542222 261.2328968 -316.62939453 255.02172852 C-318.05509894 250.18208974 -319.44524805 245.33862212 -320.75 240.46484375 C-323.27065176 231.10999034 -325.64709389 222.34333833 -331.1875 214.25 C-331.7134375 213.44046875 -332.239375 212.6309375 -332.78125 211.796875 C-338.70586575 203.53359514 -346.97848657 198.04811386 -355.1875 192.25 C-350.88714486 180.18695252 -340.76207294 169.81333382 -332.69628906 160.07910156 C-330.62802397 157.57174848 -328.59916024 155.03305055 -326.5625 152.5 C-322.10454223 147.05771214 -317.3637095 141.89919933 -312.57275391 136.75292969 C-311.23411905 135.30057929 -309.91929801 133.8263905 -308.60546875 132.3515625 C-261.39872725 79.55361774 -194.2528173 38.27839049 -126.27539062 18.84912109 C-124.82635339 18.43331925 -123.3798798 18.00851946 -121.93554688 17.57666016 C-82.45893038 5.78693475 -41.15463316 0.02911733 0 0 Z " fill="#032145" transform="translate(665.1875,153.75)"/>
<path d="M0 0 C1.04445883 0.00659473 1.04445883 0.00659473 2.11001784 0.01332268 C3.2209433 0.00851296 3.2209433 0.00851296 4.3543117 0.00360608 C6.86176902 -0.00476368 9.36899179 0.00125451 11.87645346 0.00710186 C13.68199297 0.00408435 15.48753121 0.00019689 17.29306716 -0.0044907 C22.27473714 -0.01483114 27.25633565 -0.0125736 32.23801166 -0.00831011 C37.60280099 -0.00585377 42.96757261 -0.01484341 48.33235556 -0.0223476 C58.85050241 -0.03512737 69.36862378 -0.0368842 79.88677709 -0.03454734 C88.43265646 -0.0327676 96.97852806 -0.03450641 105.52440649 -0.03877178 C106.73858884 -0.03936697 107.9527712 -0.03996216 109.20374695 -0.04057538 C111.67000696 -0.04178708 114.13626697 -0.04300121 116.60252698 -0.04421776 C139.75581694 -0.05510602 162.90909235 -0.05292478 186.06238313 -0.04683291 C207.26331231 -0.04166312 228.46419555 -0.05291855 249.66511564 -0.07193113 C271.41116126 -0.09128372 293.15718513 -0.09957004 314.90323943 -0.09580788 C327.12120272 -0.09389184 339.3391269 -0.0964224 351.55708319 -0.11052242 C361.95876842 -0.12240442 372.36039049 -0.12387704 382.76207654 -0.11173225 C388.07287586 -0.105821 393.38355947 -0.1048058 398.69435126 -0.11673465 C403.55129862 -0.12751763 408.4080326 -0.12458133 413.26496966 -0.11047297 C415.02674585 -0.10780496 416.78853835 -0.1102578 418.55029862 -0.11820883 C420.93635196 -0.1282341 423.32165185 -0.119963 425.70767409 -0.10693184 C426.74510942 -0.11789585 426.74510942 -0.11789585 427.80350304 -0.12908137 C430.7957581 -0.09496798 432.8214563 0.15196023 435.47057647 1.59109989 C437.0346871 3.26779827 437.0346871 3.26779827 437.3874703 6.46970257 C437.02015092 10.42429607 436.33245682 14.18906326 435.39015585 18.03732952 C435.21970251 18.75837368 435.04924917 19.47941784 434.87363058 20.22231182 C434.51326963 21.74006098 434.14916993 23.25692685 433.78151327 24.77292523 C433.22671244 27.06163003 432.68340007 29.3528181 432.14210898 31.6447514 C431.78796616 33.12993853 431.43316905 34.61496983 431.07765585 36.09982952 C430.91814947 36.76996579 430.7586431 37.44010205 430.59430319 38.13054547 C429.66115557 41.96581364 428.60951627 45.74816592 427.46750265 49.52687725 C427.19876491 50.41759773 426.93002716 51.3083182 426.65314585 52.2260302 C426.44905446 52.89981367 426.24496308 53.57359713 426.0346871 54.26779827 C373.26829938 54.38218139 320.50192417 54.47031551 267.73543691 54.52312492 C261.50934042 54.52937864 255.28324417 54.53585023 249.05714804 54.54245648 C247.81761677 54.54376803 246.5780855 54.54507958 245.30099268 54.54643088 C225.21674372 54.56820197 205.13256614 54.60763289 185.04835956 54.65356226 C164.44820898 54.70027946 143.84809585 54.72808365 123.24789447 54.73824075 C110.53103435 54.74510972 97.81437598 54.76682376 85.09757794 54.80738061 C76.3834401 54.83376049 67.66940691 54.84181005 58.95523201 54.83530516 C53.92358814 54.83209488 48.8922974 54.83710034 43.86071593 54.86382565 C39.25636154 54.88810374 34.65259874 54.88942137 30.04821749 54.87229275 C28.38054596 54.87017487 26.71283797 54.8765637 25.04523854 54.89221419 C22.78082692 54.91223399 20.51856049 54.90149945 18.25418288 54.88303742 C16.9957897 54.88493602 15.73739653 54.88683462 14.44087023 54.88879076 C9.90336225 54.06154271 8.2797289 52.50209519 5.0346871 49.26779827 C3.79030234 46.76682171 3.79030234 46.76682171 3.09328085 44.12717327 C2.82201376 43.14668011 2.55074667 42.16618695 2.27125937 41.15598187 C2.00756552 40.12038128 1.74387167 39.0847807 1.4721871 38.01779827 C0.88679724 35.85879555 0.30085617 33.6999422 -0.2856254 31.54123577 C-0.56696329 30.47872601 -0.84830118 29.41621624 -1.13816446 28.32150921 C-1.88359795 25.56947789 -2.68028465 22.84384393 -3.5200004 20.11936077 C-3.75517374 19.35526898 -3.99034708 18.59117718 -4.23264688 17.80393109 C-4.6653089 16.4086946 -5.10203197 15.01470796 -5.54368204 13.62229046 C-6.72132106 9.73723377 -7.35206265 6.32569567 -6.9653129 2.26779827 C-4.54617827 -0.15133635 -3.30065951 0.02751791 0 0 Z " fill="#FDFCFC" transform="translate(371.965312898159,548.7322017252445)"/>
<path d="M0 0 C129.03 0 258.06 0 391 0 C389.68264381 7.24545902 388.27843655 14.27355549 386.43359375 21.375 C386.19463882 22.30675049 385.9556839 23.23850098 385.70948792 24.19848633 C385.2095686 26.14499308 384.70783847 28.09103561 384.2043457 30.03662109 C383.43245004 33.01951494 382.66594822 36.00375508 381.90039062 38.98828125 C381.41176609 40.88810001 380.92284459 42.78784243 380.43359375 44.6875 C380.20441757 45.57808105 379.97524139 46.46866211 379.73912048 47.38623047 C379.52542313 48.2113916 379.31172577 49.03655273 379.09155273 49.88671875 C378.81081154 50.97279419 378.81081154 50.97279419 378.5243988 52.08081055 C378.07192654 53.73676399 377.54285476 55.37143571 377 57 C331.76690476 57.1372926 286.53383155 57.24303736 241.30056908 57.30639198 C235.96201642 57.31389634 230.62346416 57.32166226 225.28491211 57.32958984 C223.69067808 57.33195064 223.69067808 57.33195064 222.0642373 57.33435912 C204.84854255 57.36047664 187.63296783 57.40778943 170.41734432 57.46291678 C152.75635421 57.51899917 135.09542702 57.55234704 117.4343515 57.56453097 C106.5338992 57.57276926 95.6337862 57.59880149 84.73343832 57.6474988 C77.26160906 57.67918156 69.78995555 57.68880806 62.31806397 57.68100826 C58.00517144 57.67716003 53.69287236 57.68311449 49.38008499 57.71523285 C45.43121738 57.74442648 41.48334234 57.74591022 37.53442908 57.72539337 C36.10629939 57.72285766 34.67810783 57.73047515 33.25009995 57.74929909 C21.26123762 57.89814047 21.26123762 57.89814047 16.6990366 54.1554966 C13.83585133 51.23031915 12.59679533 48.30147622 11.5234375 44.3359375 C11.3454361 43.70378326 11.16743469 43.07162903 10.98403931 42.4203186 C10.42441502 40.41075448 9.8994514 38.39399193 9.375 36.375 C9.0178344 35.07751478 8.6584696 33.78063288 8.296875 32.484375 C5.3414315 21.704448 2.71103239 10.84412957 0 0 Z " fill="#FDFCFC" transform="translate(393,656)"/>
<path d="M0 0 C0.73089844 0.37253906 1.46179688 0.74507812 2.21484375 1.12890625 C15.37858615 8.61008263 25.33275041 21.28227423 29.53271484 35.84741211 C32.69076265 50.39522165 29.642637 64.60044096 22.0078125 77.04296875 C13.42941146 89.67691736 1.26984128 99.06776084 -14 102 C-29.4204218 103.87913382 -43.18820725 101.45680511 -55.76171875 91.8671875 C-66.94263915 82.53999736 -74.97099952 70.66173391 -77 56 C-78.13517488 38.71184488 -74.11655545 25.12359845 -62.75 11.8125 C-46.65757464 -5.35814482 -21.24290814 -11.16257618 0 0 Z " fill="#FD5703" transform="translate(717,899)"/>
<path d="M0 0 C11.91763279 8.1997388 19.40910447 17.86322199 23.6875 31.6875 C24.0175 32.6775 24.3475 33.6675 24.6875 34.6875 C26.25527389 52.81096621 23.9049617 67.98732479 12.03417969 82.18212891 C6.08121754 88.83658225 -1.19218114 93.16642056 -9.3125 96.6875 C-10.08980469 97.04070312 -10.86710937 97.39390625 -11.66796875 97.7578125 C-23.61997433 101.95955154 -38.94263902 100.99561954 -50.3125 95.6875 C-53.81053889 93.89311694 -57.07831244 91.92089875 -60.3125 89.6875 C-61.23289062 89.06294922 -61.23289062 89.06294922 -62.171875 88.42578125 C-72.99578745 80.15889399 -79.20478594 66.85113233 -81.3125 53.6875 C-82.43450355 37.54667755 -80.06011719 24.46786571 -69.3125 11.6875 C-51.22892714 -9.02273707 -23.88497235 -13.74203889 0 0 Z " fill="#FD5703" transform="translate(495.3125,901.3125)"/>
<path d="M0 0 C129.03 0 258.06 0 391 0 C390.67 2.64 390.34 5.28 390 8 C389.67 6.68 389.34 5.36 389 4 C388.34 4 387.68 4 387 4 C387 3.01 387 2.02 387 1 C338.38648838 1.058831 289.77302264 1.13333918 241.15956874 1.22898628 C235.42530841 1.24025496 229.69104784 1.25139333 223.95678711 1.26245117 C222.24434524 1.2657567 222.24434524 1.2657567 220.49730859 1.269129 C201.99214367 1.30453846 183.4869788 1.32938197 164.98179253 1.35034702 C146.0054526 1.37208005 127.02915679 1.40510659 108.05285436 1.44870156 C96.33565778 1.47526141 84.6185162 1.49292483 72.90129099 1.49934604 C64.87537315 1.5045867 56.84952463 1.52075894 48.82364389 1.54566566 C44.18740334 1.55972617 39.55128702 1.5688346 34.9150238 1.56500816 C30.67544113 1.56161506 26.43612443 1.57186296 22.1965963 1.59323552 C20.65820421 1.59853376 19.11978471 1.59870682 17.58139267 1.59339563 C15.49893256 1.58693525 13.41736446 1.59870035 11.33497906 1.61523914 C10.17569289 1.61713775 9.01640672 1.61903635 7.82199067 1.62099248 C4.9680523 1.75664669 4.9680523 1.75664669 3.10406381 3.52404755 C2.73972275 4.01111186 2.3753817 4.49817617 2 5 C0 1.125 0 1.125 0 0 Z " fill="#FEF4EF" transform="translate(393,656)"/>
<path d="M0 0 C1.62170357 0.01055923 1.62170357 0.01055923 3.27616882 0.02133179 C5.05533188 0.04075081 5.05533188 0.04075081 6.87043762 0.06056213 C8.74378029 0.07497345 8.74378029 0.07497345 10.65496826 0.0896759 C14.08035478 0.11702805 17.50564287 0.14892507 20.93096709 0.1828258 C24.51039498 0.21718281 28.08986888 0.24575335 31.66934204 0.27493286 C38.44789841 0.33107275 45.22639715 0.39243046 52.00489074 0.4556542 C59.72182921 0.5273775 67.43881383 0.59329708 75.15580785 0.65872467 C91.03055268 0.793447 106.90522361 0.93547234 122.77986145 1.08229065 C122.77986145 1.41229065 122.77986145 1.74229065 122.77986145 2.08229065 C121.81825025 2.08587318 121.81825025 2.08587318 120.83721256 2.08952808 C105.21172244 2.1487597 89.58640919 2.22436168 73.96109104 2.31800556 C66.40468303 2.36290028 58.84832148 2.40232937 51.29182434 2.4287262 C44.70273125 2.45175767 38.11378598 2.4852128 31.52481025 2.53099221 C28.03855756 2.55485537 24.55245064 2.5736292 21.06611824 2.57990456 C17.16658177 2.58711954 13.26740933 2.61761441 9.36799622 2.6499176 C8.22216064 2.64848251 7.07632507 2.64704742 5.89576721 2.64556885 C-1.33240401 2.730066 -8.64325079 3.10473881 -14.4115448 7.9065094 C-15.09023621 8.82883362 -15.09023621 8.82883362 -15.78263855 9.76979065 C-16.25830261 10.39240784 -16.73396667 11.01502502 -17.2240448 11.6565094 C-17.55275574 12.12701721 -17.88146667 12.59752502 -18.22013855 13.08229065 C-18.88013855 12.42229065 -19.54013855 11.76229065 -20.22013855 11.08229065 C-15.39402168 4.04420354 -8.53968714 -0.07527638 0 0 Z " fill="#FC5F0F" transform="translate(163.2201385498047,362.91770935058594)"/>
<path d="M0 0 C4.88049925 3.9419417 9.0580583 8.11950075 13 13 C10 13 10 13 7.30078125 10.59375 C6.29697757 9.5700032 5.30114351 8.5383946 4.3125 7.5 C3.80138672 6.97535156 3.29027344 6.45070313 2.76367188 5.91015625 C1.50227292 4.61339096 0.25022788 3.30753883 -1 2 C-0.67 1.34 -0.34 0.68 0 0 Z " fill="#EEF1F3" transform="translate(954,268)"/>
<path d="M0 0 C4.13621084 3.3810038 7.81316569 6.66590534 11 11 C8 11 8 11 5.73828125 9.03125 C4.93777344 8.1959375 4.13726563 7.360625 3.3125 6.5 C2.50425781 5.6646875 1.69601562 4.829375 0.86328125 3.96875 C0.24839844 3.3190625 -0.36648438 2.669375 -1 2 C-0.67 1.34 -0.34 0.68 0 0 Z " fill="#EAEDF0" transform="translate(889,350)"/>
<path d="M0 0 C0.66 0.33 1.32 0.66 2 1 C0.57282151 2.67551353 -0.86708482 4.34019309 -2.3125 6 C-3.51326172 7.3921875 -3.51326172 7.3921875 -4.73828125 8.8125 C-7 11 -7 11 -10 11 C-8.52116808 9.35386588 -7.04192523 7.70810092 -5.5625 6.0625 C-4.73878906 5.14597656 -3.91507813 4.22945312 -3.06640625 3.28515625 C-1 1 -1 1 0 0 Z " fill="#FB5E1A" transform="translate(660,905)"/>
<path d="M0 0 C3.21524305 1.40844718 5.32183868 3.10344786 7.75 5.625 C8.67039062 6.57246094 8.67039062 6.57246094 9.609375 7.5390625 C10.29773438 8.26222656 10.29773438 8.26222656 11 9 C10.34 9.66 9.68 10.32 9 11 C7.86874978 9.92319498 6.74525081 8.83824365 5.625 7.75 C4.99851562 7.14671875 4.37203125 6.5434375 3.7265625 5.921875 C2.02689839 4.0299412 1.01540134 2.31798691 0 0 Z " fill="#162D4F" transform="translate(752,898)"/>
<path d="M0 0 C2.50014115 3.74095194 1.90042304 6.44209421 1.125 10.75 C0.92132812 11.92046875 0.71765625 13.0909375 0.5078125 14.296875 C0.34023438 15.18890625 0.17265625 16.0809375 0 17 C-0.66 17 -1.32 17 -2 17 C-1.85786703 15.10388566 -1.71113093 13.20811606 -1.5625 11.3125 C-1.48128906 10.25675781 -1.40007813 9.20101562 -1.31640625 8.11328125 C-1.03548319 5.34913703 -0.59843148 2.71054259 0 0 Z " fill="#3B4E6A" transform="translate(979,631)"/>
<path d="M0 0 C0.66 0 1.32 0 2 0 C1.54738642 1.43931117 1.08767021 2.87638999 0.625 4.3125 C0.36976563 5.11300781 0.11453125 5.91351563 -0.1484375 6.73828125 C-1 9 -1 9 -3 12 C-3.66 12 -4.32 12 -5 12 C-3.68938409 7.76570244 -2.05643741 3.92592596 0 0 Z " fill="#DADFE6" transform="translate(368,439)"/>
<path d="M0 0 C0.99 0.33 1.98 0.66 3 1 C0.36 3.64 -2.28 6.28 -5 9 C-5.99 8.67 -6.98 8.34 -8 8 C-5.36 5.36 -2.72 2.72 0 0 Z " fill="#182E50" transform="translate(354,289)"/>
<path d="M0 0 C0.66 0.33 1.32 0.66 2 1 C2 1.66 2 2.32 2 3 C0.25 4.5078125 0.25 4.5078125 -2 6.125 C-2.7425 6.66382813 -3.485 7.20265625 -4.25 7.7578125 C-4.8275 8.16773438 -5.405 8.57765625 -6 9 C-6 6 -6 6 -4.6875 4.39453125 C-4.130625 3.87246094 -3.57375 3.35039062 -3 2.8125 C-2.443125 2.28269531 -1.88625 1.75289063 -1.3125 1.20703125 C-0.6628125 0.60955078 -0.6628125 0.60955078 0 0 Z " fill="#182F50" transform="translate(383,260)"/>
<path d="M0 0 C0.33 1.32 0.66 2.64 1 4 C-1.31 5.98 -3.62 7.96 -6 10 C-6 6.41087588 -5.33563446 5.89142971 -3 3.3125 C-2.443125 2.68988281 -1.88625 2.06726563 -1.3125 1.42578125 C-0.879375 0.95527344 -0.44625 0.48476563 0 0 Z " fill="#193051" transform="translate(900,802)"/>
<path d="M0 0 C0.99 0.33 1.98 0.66 3 1 C2.25 3.875 2.25 3.875 1 7 C-0.98 7.99 -0.98 7.99 -3 9 C-2.01 6.03 -1.02 3.06 0 0 Z " fill="#283C5C" transform="translate(954,717)"/>
<path d="M0 0 C0.75 1.5625 0.75 1.5625 1 4 C-0.13084437 6.50286409 -1.52139516 8.67007722 -3 11 C-3.66 11 -4.32 11 -5 11 C-3.77472971 6.94718288 -2.30119506 3.55639236 0 0 Z " fill="#314160" transform="translate(946,735)"/>
<path d="M0 0 C-3.53411321 2.12046792 -6.94393835 2.53199289 -11 3 C-11 2.01 -11 1.02 -11 0 C-7.18243176 -1.37432457 -3.92744671 -0.67975039 0 0 Z " fill="#1B3559" transform="translate(570,167)"/>
<path d="M0 0 C0.75 1.625 0.75 1.625 1 4 C-2.17808219 9.5890411 -2.17808219 9.5890411 -5 11 C-3.77472971 6.94718288 -2.30119506 3.55639236 0 0 Z " fill="#FA621E" transform="translate(649,917)"/>
<path d="M0 0 C-0.95712891 0.16435547 -0.95712891 0.16435547 -1.93359375 0.33203125 C-2.75988281 0.49058594 -3.58617187 0.64914062 -4.4375 0.8125 C-5.26121094 0.96332031 -6.08492188 1.11414063 -6.93359375 1.26953125 C-7.61550781 1.51058594 -8.29742187 1.75164063 -9 2 C-9.33 2.99 -9.66 3.98 -10 5 C-11.32 4.34 -12.64 3.68 -14 3 C-12.42274653 2.29866401 -10.83788667 1.614417 -9.25 0.9375 C-7.92742187 0.36322266 -7.92742187 0.36322266 -6.578125 -0.22265625 C-3.84743691 -1.04600008 -2.63098653 -0.9773992 0 0 Z " fill="#FC8247" transform="translate(457,896)"/>
<path d="M0 0 C0.99 0.66 1.98 1.32 3 2 C0.03 4.475 0.03 4.475 -3 7 C-3.33 6.34 -3.66 5.68 -4 5 C-2.68 3.35 -1.36 1.7 0 0 Z " fill="#FA6A22" transform="translate(147,369)"/>
<path d="M0 0 C0.66 0.33 1.32 0.66 2 1 C-2.82142857 7.29464286 -2.82142857 7.29464286 -7 8 C-6.02133662 6.85373678 -5.04205413 5.70800212 -4.0625 4.5625 C-3.51722656 3.92441406 -2.97195313 3.28632813 -2.41015625 2.62890625 C-1.63204305 1.73008851 -0.84063472 0.84063472 0 0 Z " fill="#2F405F" transform="translate(370,272)"/>
<path d="M0 0 C1.32 0 2.64 0 4 0 C3.67 2.64 3.34 5.28 3 8 C2.67 6.68 2.34 5.36 2 4 C1.34 4 0.68 4 0 4 C0 2.68 0 1.36 0 0 Z " fill="#FDEBE0" transform="translate(780,656)"/>
<path d="M0 0 C1.98 1.65 3.96 3.3 6 5 C5.01 6.485 5.01 6.485 4 8 C2.35 5.69 0.7 3.38 -1 1 C-0.67 0.67 -0.34 0.34 0 0 Z " fill="#FD6821" transform="translate(305,372)"/>
<path d="M0 0 C1.10844919 3.32534757 0.84454356 5.62182575 0 9 C-0.99 8.34 -1.98 7.68 -3 7 C-1.125 2.25 -1.125 2.25 0 0 Z " fill="#223552" transform="translate(313,339)"/>
<path d="M0 0 C0 0.66 0 1.32 0 2 C-3.4352048 4.29013653 -4.985331 4.17842973 -9 4 C-6.10130984 1.70103884 -3.84906588 0 0 0 Z " fill="#243B5B" transform="translate(514,182)"/>
<path d="M0 0 C2.31 0 4.62 0 7 0 C6.01 0.66 5.02 1.32 4 2 C4 2.99 4 3.98 4 5 C2 3.625 2 3.625 0 2 C0 1.34 0 0.68 0 0 Z " fill="#2A3A58" transform="translate(741,889)"/>
<path d="M0 0 C0 3 0 3 -1.5 4.6875 C-1.995 5.120625 -2.49 5.55375 -3 6 C-3.99 5.67 -4.98 5.34 -6 5 C-2.25 1.125 -2.25 1.125 0 0 Z " fill="#102B4F" transform="translate(919,782)"/>
<path d="M0 0 C0 0.33 0 0.66 0 1 C-5.16044765 2.512545 -8.65998179 3.33500455 -14 2 C-14 1.67 -14 1.34 -14 1 C-9.23692563 0.04738513 -4.8333472 -0.08333357 0 0 Z " fill="#BFC7D3" transform="translate(615,260)"/>
</svg>
